<svg width="251" height="171" viewBox="0 0 251 171" fill="none" xmlns="http://www.w3.org/2000/svg">
<g style="mix-blend-mode:plus-lighter">
<path d="M232.128 1.36719C235.849 0.194984 240.224 0.387509 246.112 0.915039C247.724 1.05963 249.025 1.97444 249.331 3.42969C249.58 4.61626 249.233 6.01646 248.393 6.78809C247.905 7.23658 247.523 7.47567 246.973 7.66895C246.537 7.82231 245.997 7.94665 245.214 8.10645L244.32 8.28516L244.297 8.29199C238.798 9.95903 234.54 13.9279 231.02 18.6543C227.503 23.3779 224.682 28.9173 222.093 33.7764L222.09 33.7822C215.233 47.0725 209.29 60.8416 204.115 74.9785C197.479 92.7913 193.864 102.494 190.92 108.434C189.452 111.395 188.161 113.397 186.761 114.993C185.361 116.588 183.836 117.796 181.87 119.153C180.154 120.338 177.939 121.285 175.912 121.431C173.001 121.639 170.425 119.945 168.837 117.377C167.394 115.044 166.744 112.567 166.254 109.012C166.164 106.406 166.133 103.796 166.144 101.187V101.186C166.148 99.706 166.151 98.2265 166.155 96.7021C166.169 94.4008 166.17 94.4003 166.184 92.0527V92.0508C166.19 90.4929 166.195 88.9351 166.2 87.3301C166.21 84.4371 166.223 81.5434 166.239 78.6504C166.246 77.4266 164.593 77.0335 164.049 78.1299C160.639 84.9534 157.092 91.6355 153.326 98.2178L151.698 101.033L151.695 101.037C151.14 102.008 150.586 102.979 150.014 103.979C145.166 112.296 139.804 120.863 132.044 125.941C130.853 126.721 129.138 127.319 127.714 127.492C124.978 127.825 122.64 126.085 121.057 123.604C119.4 121.004 118.737 118.408 118.673 114.305C119.202 92.757 127.57 71.6021 136.6 52.6172C140.097 45.2625 139 38.709 135.227 35.2793C131.434 31.8311 125.179 31.7503 118.815 36.8291C117.573 37.6534 116.027 37.3907 114.916 36.5088C113.804 35.626 113.255 34.2298 113.875 32.8916C114.05 32.5141 114.299 32.1199 114.657 31.6025C114.998 31.1098 115.422 30.6463 115.879 30.2412C125.464 21.7445 130.437 17.3739 134.422 15.1455C138.34 12.9544 141.286 12.844 146.922 13C147.973 13.0291 148.896 13.0786 149.85 13.3398C151.165 13.6998 152.243 14.6088 153.084 15.8154C153.925 17.0227 154.509 18.5004 154.837 19.9287C155.227 21.6277 155.375 23.2996 155.331 25.084C155.268 27.6238 154.615 30.1247 153.663 32.5215C152.686 34.9826 151.596 37.3804 150.466 39.7832L149.324 42.1904L149.321 42.1973L145.852 49.7725C145.278 51.0167 144.705 52.2611 144.113 53.543L144.112 53.5449C140.574 61.2787 137.323 68.8257 134.6 76.4512C132.984 80.9776 132.667 84.8357 133.281 87.8184C133.895 90.803 135.452 92.9359 137.585 93.9121C139.719 94.8892 142.322 94.6575 144.924 93.1357C147.521 91.6161 150.138 88.8029 152.383 84.5547L152.384 84.5557C153.93 81.662 155.559 78.8259 157.2 75.9824L157.203 75.9775C160.715 69.7231 163.675 63.1798 166.638 56.6416C167.924 53.8063 168.632 52.2471 169.132 51.2676C169.854 49.8519 171.469 49.1016 173.175 49.1016C174.027 49.1016 174.9 49.2886 175.566 49.6641C176.222 50.0341 176.648 50.5649 176.722 51.2754C176.779 51.8153 176.821 52.5377 176.883 53.5742C176.84 57.2732 176.331 60.6776 175.609 64.3213V64.3223C173.509 75.0715 173.143 85.6751 173.102 96.5879C173.097 97.5988 173.092 98.6098 173.087 99.6514V99.6553C173.096 103.228 175.014 105.773 177.465 106.592C179.94 107.419 182.803 106.435 184.542 103.282C184.924 102.59 185.301 101.873 185.676 101.13C186.072 100.361 186.468 99.591 186.876 98.7988H186.877L186.878 98.7949C190.017 92.5915 192.52 86.2883 194.763 79.6631C201.592 60.1143 206.776 45.2756 211.079 34.041C215.385 22.7989 218.796 15.2021 222.072 10.1191C225.339 5.05057 228.444 2.52777 232.128 1.36719Z" fill="#D89690" stroke="#363536"/>
<path d="M76.9805 6.9886C87.5645 5.86722 98.0895 7.46393 106.981 13.7533C113.861 20.0118 117.696 27.1568 118.523 36.7923C119.086 57.4413 111.181 71.5908 98.2422 86.4554C91.9234 93.206 84.8637 99.4967 77.1709 104.535C70.7785 108.722 65.5044 114.5 63.3223 120.493C62.2288 123.496 61.907 126.568 62.6309 129.519C63.3557 132.474 65.1191 135.266 68.125 137.719C69.3543 138.722 70.5181 139.483 71.9844 140.132C74.3908 141.198 76.8517 141.91 79.3545 142.287C86.6239 143.385 93.8841 140.805 100.136 137.153C104.876 134.384 109.231 131.004 113.17 126.66C113.482 126.316 113.908 125.92 114.269 125.676C115.756 124.673 117.381 125.144 118.48 126.368C119.588 127.6 120.055 129.5 119.203 131.156C118.776 131.986 118.222 132.822 117.51 133.719C111.586 139.644 105.373 143.718 97.9521 147.138L97.9346 147.146C97.0605 147.59 96.1861 148.033 95.2861 148.491C87.3901 151.355 77.0804 150.978 69.5176 147.233C58.9354 140.486 51.1888 130.727 43.7822 120.211L43.7627 120.184L43.7402 120.16L43.5615 119.975C41.6832 118.121 38.9005 117.921 36.5117 117.745C35.0082 117.635 33.5834 118.604 33.209 120.088C30.9453 128.669 28.0331 136.787 24.6494 144.937L24.6484 144.939C24.3482 145.67 24.0476 146.402 23.7383 147.156C20.301 155.427 18.426 159.936 16.7373 162.769C15.9005 164.173 15.1197 165.148 14.2285 165.955C13.3338 166.766 12.3107 167.425 10.9668 168.184C9.65235 168.926 8.21074 169.432 6.72559 169.622C5.5597 169.772 4.96452 169.75 3.86035 169.555C3.00493 169.404 2.22056 168.956 1.61816 168.306C1.60556 168.292 1.58293 168.268 1.57031 168.254C1.56817 168.252 1.56664 168.251 1.56445 168.248C1.56319 168.247 1.56279 168.246 1.56152 168.244C1.55847 168.241 1.56201 168.245 1.55859 168.242C1.55303 168.236 1.55248 168.235 1.54688 168.229L1.5459 168.228V168.227C1.54378 168.225 1.54579 168.228 1.54395 168.226C1.54154 168.223 1.54499 168.226 1.54297 168.224L1.53516 168.216C1.5304 168.211 1.52809 168.208 1.52344 168.203C1.51608 168.196 1.5248 168.204 1.51758 168.197C1.51726 168.196 1.51303 168.192 1.51172 168.191C1.50683 168.185 1.50391 168.182 1.49902 168.177C1.49164 168.169 1.50116 168.18 1.49316 168.171V168.17L1.49219 168.169L1.49121 168.168C1.4906 168.168 1.49111 168.169 1.49023 168.168V168.167L1.4834 168.16V168.16H1.48242V168.159H1.48145C1.47875 168.156 1.47828 168.155 1.47559 168.152C1.45554 168.13 1.4722 168.148 1.45215 168.126C1.45128 168.125 1.45106 168.125 1.4502 168.124V168.123H1.44922L1.44629 168.12C1.44587 168.12 1.44716 168.12 1.44629 168.119C1.44459 168.118 1.44217 168.115 1.44043 168.114C1.43327 168.106 1.44158 168.114 1.43457 168.107C1.43551 168.108 1.43013 168.103 1.43066 168.104C1.42996 168.103 1.42825 168.101 1.42773 168.101C0.829823 167.456 0.5 166.623 0.5 165.747C0.500214 164.047 1.72795 162.584 3.40039 162.301C3.50713 162.283 3.61442 162.265 3.72168 162.246L3.75586 162.241L3.78906 162.231C6.2698 161.449 7.87875 160.36 9.17871 158.869C10.457 157.404 11.4259 155.558 12.6416 153.329L12.6465 153.321L12.6514 153.311C15.463 147.6 17.8163 141.694 20.1523 135.771L20.1533 135.772C20.6624 134.507 21.1708 133.24 21.6953 131.937C24.0691 126.075 24.5499 124.892 25.7129 120.698C26.3556 118.38 24.9513 115.997 22.6309 115.407C22.0881 115.208 21.6166 115.036 21.2021 114.882C17.7366 113.591 15.3738 110.229 15.0889 106.51C15.0225 105.643 15.022 104.76 15.0703 103.819C15.169 101.895 15.6652 99.9935 16.8154 98.5531C16.9154 98.4278 17.017 98.3117 17.124 98.2005C18.496 96.7757 20.6065 96.231 22.7139 96.2054C25.5846 96.1706 28.2639 96.4361 31.1143 96.9593C33.0735 97.3187 35.0539 96.2299 35.6846 94.3089C36.9567 90.4473 38.2398 86.5899 39.5254 82.7327V82.7318C40.4487 79.9427 41.3548 77.1474 42.2607 74.3538L42.2617 74.3548C45.4975 64.491 48.9489 54.8354 53.1748 45.43L53.1768 45.4251C53.5412 44.5901 53.9058 43.755 54.2812 42.8949C55.5579 40.1556 56.1878 38.8131 56.835 37.9788C57.4426 37.1957 58.0612 36.8667 59.457 36.2376C59.645 36.1529 59.8452 36.1049 60.0498 36.096C60.7892 36.0642 61.4327 36.5241 61.5869 37.1868C62.8318 42.5371 60.7521 46.3641 58.4658 51.7249L58.4619 51.7327C57.6144 53.8126 56.7722 55.8949 55.9336 57.9788C55.4866 59.0887 55.0397 60.1986 54.5791 61.3421L54.5771 61.346C52.0858 67.6875 49.8015 74.1087 47.54 80.5384C47.0959 81.773 46.6519 83.0076 46.1943 84.2796L46.1924 84.2835C44.4567 89.2473 42.9848 93.9101 42.2363 98.9398C41.9661 100.756 42.0394 102.86 42.6631 104.56C43.2918 106.274 44.5207 107.655 46.5645 107.77L46.5947 107.772L46.624 107.77C57.0981 107.119 65.642 101.631 74.4512 96.2972L74.4502 96.2962C75.6388 95.5772 76.8281 94.8593 78.0527 94.1185L78.0664 94.1107C89.8609 86.4791 99.6127 75.7476 105.963 62.7933C110.014 54.5283 112.331 45.1696 111.06 35.9925C110.829 34.3315 110.47 32.6943 109.94 31.0658C108.396 26.3128 105.179 22.2523 101.121 19.3792L100.726 19.1048C98.4237 17.4507 95.8493 16.1158 93.0293 15.5365C76.6284 12.1671 60.3475 17.6535 46.0146 26.055H46.0137L46.0039 26.0618C31.94 34.7501 21.5295 45.6352 16.1016 62.515L16.0957 62.5316L16.0918 62.5482C15.3538 65.531 14.9468 68.4843 14.6465 71.4798C14.5672 72.2702 14.2138 72.9467 13.7246 73.3607C13.2468 73.7649 12.6292 73.9316 11.9365 73.7152C11.5989 73.6097 11.2222 73.4114 10.9004 73.1527C10.5751 72.8911 10.3402 72.5964 10.2363 72.3158C8.96872 68.89 8.96713 65.3096 9.33203 61.5687C9.49681 59.8794 9.86477 58.2158 10.4482 56.6273C16.9404 38.9529 31.4028 25.271 46.748 16.4954C55.7685 11.9528 66.3883 8.11088 76.9805 6.9886Z" fill="#D89690" stroke="#363536"/>
</g>
</svg>
